<svg xmlns="http://www.w3.org/2000/svg" xmlns:xlink="http://www.w3.org/1999/xlink" fill="none" version="1.1" width="32" height="32" viewBox="0 0 32 32"><defs><clipPath id="master_svg0_279_9205"><rect x="0" y="0" width="32" height="32" rx="0"/></clipPath></defs><g clip-path="url(#master_svg0_279_9205)"><g><path d="M19.339765625,25.8199951171875L19.339765625,23.2199951171875L19.339765625,19.0299951171875C19.339765625,18.5699951171875,19.579765625,18.1499951171875,19.979765625,17.9299951171875L25.549765625,14.7099951171875L28.099765625,13.2399951171875L28.099765625,9.1099951171875C28.099765625,8.1999951171875,27.609765625,7.3599951171875,26.829765625,6.8999951171875L15.449765625,0.3399951171875C14.659765625,-0.1200048828125,13.689765625,-0.1200048828125,12.899765625,0.3399951171875L1.529765625,6.9099951171875C0.739765625,7.3599951171875,0.259765625,8.1999951171875,0.259765625,9.1099951171875L0.259765625,22.2399951171875C0.259765625,23.1499951171875,0.749765625,23.9899951171875,1.529765625,24.4499951171875L12.899765625,31.0099951171875C13.689765625,31.4699951171875,14.659765625,31.4699951171875,15.449765625,31.0099951171875L19.329765625,28.7699951171875L19.329765625,25.8199951171875L19.339765625,25.8199951171875ZM15.449765625,13.4799951171875C14.659765625,13.9399951171875,14.179765625,14.7799951171875,14.179765625,15.6899951171875L14.179765625,26.5999951171875C14.179765625,27.5799951171875,13.119765625,28.1899951171875,12.269765625,27.6999951171875L3.449765625,22.6099951171875C3.059765625,22.3799951171875,2.809765625,21.9599951171875,2.809765625,21.5099951171875L2.809765625,9.8499951171875C2.809765625,9.3899951171875,3.049765625,8.9699951171875,3.449765625,8.7499951171875L13.539765625,2.9199951171875C13.929765625,2.6899951171875,14.419765625,2.6899951171875,14.809765625,2.9199951171875L22.349765625,7.2799951171875C23.199765625,7.7699951171875,23.199765625,8.9999951171875,22.349765625,9.4899951171875L15.449765625,13.4799951171875Z" fill="#303AB2" fill-opacity="1" style="mix-blend-mode:passthrough"/></g><g><path d="M29.829843750000002,12.239963671875L28.099843749999998,13.239958671875L28.099843749999998,16.829958671874998L28.099843749999998,17.179958671875L28.099843749999998,21.529958671875L28.099843749999998,23.009938671875C28.099843749999998,23.459938671875,27.85984375,23.869938671874998,27.459843749999997,24.079938671875L27.329843750000002,24.159938671875L27.13984375,24.269938671875L25.53984375,25.189938671874998L24.50984375,25.789938671875L19.33984375,28.769938671875L19.33984375,30.029938671875L19.33984375,30.639938671875L19.33984375,30.659938671875L19.33984375,30.739938671875C19.35984345,31.689938671875,20.35984375,32.289938671875,21.20984375,31.869938671875L21.25984375,31.849938671875L22.27984375,31.259938671875L31.10984375,26.139938671875C31.49984375,25.909938671875,31.74984375,25.489938671875002,31.74984375,25.039938671875L31.74984375,13.339958671875C31.73984375,12.359963671875,30.67984375,11.749963671875,29.829843750000002,12.239963671875Z" fill="#303AB2" fill-opacity="1" style="mix-blend-mode:passthrough"/></g></g></svg>