<?xml version="1.0" encoding="utf-8"?>
<!-- Generator: Adobe Illustrator 25.0.0, SVG Export Plug-In . SVG Version: 6.00 Build 0)  -->
<svg version="1.1" id="图层_1" xmlns="http://www.w3.org/2000/svg" xmlns:xlink="http://www.w3.org/1999/xlink" x="0px" y="0px"
	 viewBox="0 0 32 32" enable-background="new 0 0 32 32" xml:space="preserve">
<g>
	<g>
		<path fill="#303AB2" d="M19.3,25.8v-2.6V19c0-0.5,0.2-0.9,0.6-1.1l5.6-3.2l2.5-1.5V9.1c0-0.9-0.5-1.7-1.3-2.2L15.4,0.3
			c-0.8-0.5-1.8-0.5-2.5,0L1.5,6.9C0.7,7.4,0.3,8.2,0.3,9.1v13.1c0,0.9,0.5,1.7,1.3,2.2L12.9,31c0.8,0.5,1.8,0.5,2.5,0l3.9-2.2
			L19.3,25.8L19.3,25.8z M15.4,13.5c-0.8,0.5-1.3,1.3-1.3,2.2v10.9c0,1-1.1,1.6-1.9,1.1l-8.8-5.1c-0.4-0.2-0.6-0.6-0.6-1.1V9.9
			C2.8,9.4,3,9,3.4,8.8l10.1-5.8c0.4-0.2,0.9-0.2,1.3,0l7.5,4.4c0.8,0.5,0.8,1.7,0,2.2L15.4,13.5z"/>
	</g>
	<g>
		<path fill="#303AB2" d="M29.8,12.2l-1.7,1v3.6v0.3v4.3V23c0,0.4-0.2,0.9-0.6,1.1l-0.1,0.1l-0.2,0.1l-1.6,0.9l-1,0.6l-5.2,3V30v0.6
			v0v0.1c0,0.9,1,1.5,1.9,1.1l0,0l1-0.6l8.8-5.1c0.4-0.2,0.6-0.6,0.6-1.1V13.3C31.7,12.4,30.7,11.8,29.8,12.2z"/>
	</g>
</g>
</svg>
